<?xml version="1.0" encoding="UTF-8"?>
<!DOCTYPE svg PUBLIC "-//W3C//DTD SVG 1.1//EN" "http://www.w3.org/Graphics/SVG/1.1/DTD/svg11.dtd">
<!-- Creator: CorelDRAW X6 -->
<svg xmlns="http://www.w3.org/2000/svg" xml:space="preserve" width="3.93055in" height="2.19444in" version="1.1" style="shape-rendering:geometricPrecision; text-rendering:geometricPrecision; image-rendering:optimizeQuality; fill-rule:evenodd; clip-rule:evenodd"
viewBox="0 0 3931 2194"
 xmlns:xlink="http://www.w3.org/1999/xlink">
 <defs>
  <style type="text/css">
   <![CDATA[
    .fil0 {fill:#E3E549;fill-rule:nonzero}
   ]]>
  </style>
 </defs>
 <g id="Layer_x0020_1">
  <metadata id="CorelCorpID_0Corel-Layer"/>
  <path class="fil0" d="M1725 1702c-116,0 -185,48 -199,131 -7,44 3,78 21,96 8,10 21,17 38,23 32,12 55,15 98,20 90,10 126,24 116,83 -10,55 -58,82 -141,82 -71,0 -112,-26 -124,-78 -4,-12 -7,-13 -19,-10l-25 8c-12,3 -16,10 -14,22 15,75 74,111 175,111 122,0 192,-49 207,-132 17,-94 -41,-128 -150,-138 -40,-4 -68,-8 -83,-13 -32,-11 -45,-34 -39,-71 10,-53 54,-79 132,-79 66,0 105,22 119,67 6,12 7,13 22,8l22 -9c12,-5 15,-12 12,-23 -18,-66 -73,-98 -165,-98z"/>
  <path class="fil0" d="M2583 1716l-21 0c-19,0 -25,2 -31,16l-130 277c-5,13 -13,31 -21,54 -8,22 -13,37 -16,41l-3 0c0,-3 0,-15 -1,-40 -1,-23 -3,-42 -5,-58l-39 -265c-3,-13 -5,-16 -23,-16l-12 0c-19,0 -23,3 -30,16l-135 268c-6,13 -13,31 -22,54 -9,23 -14,37 -16,40l-2 0c-1,-4 -2,-19 -2,-42 -1,-23 -1,-40 -2,-51l-33 -278c0,-13 -5,-16 -24,-16l-20 0c-15,0 -20,4 -17,19l57 431c1,10 7,14 19,14l19 0c11,0 19,-5 24,-14l145 -294c4,-12 11,-26 19,-44 7,-18 12,-29 13,-32l2 0c1,3 1,13 2,31 1,18 2,33 3,45l40 294c1,10 7,14 20,14l21 0c12,0 21,-5 25,-14l206 -431c7,-14 5,-19 -9,-19z"/>
  <path class="fil0" d="M2751 1716l-28 0c-11,0 -17,5 -20,16l-75 429c-3,13 2,16 13,16l28 0c11,0 17,-5 20,-16l75 -429c3,-11 -2,-16 -13,-16z"/>
  <path class="fil0" d="M3078 1702c-116,0 -185,48 -199,131 -7,44 3,78 21,96 8,10 21,17 38,23 32,12 55,15 98,20 90,10 126,24 116,83 -10,55 -57,82 -141,82 -71,0 -112,-26 -124,-78 -4,-12 -7,-13 -19,-10l-25 8c-12,3 -16,10 -14,22 15,75 74,111 175,111 122,0 192,-49 207,-132 17,-94 -41,-128 -150,-138 -40,-4 -68,-8 -83,-13 -32,-11 -45,-34 -39,-71 10,-53 54,-79 132,-79 66,0 105,22 119,67 6,12 7,13 22,8l22 -9c12,-5 15,-12 12,-23 -18,-66 -73,-98 -165,-98z"/>
  <path class="fil0" d="M3700 1800c-18,-66 -73,-98 -165,-98 -116,0 -185,48 -199,131 -7,44 3,78 21,96 8,10 21,17 38,23 32,12 55,15 98,20 90,10 126,24 116,83 -10,55 -57,82 -141,82 -71,0 -112,-26 -124,-78 -4,-12 -7,-13 -19,-10l-25 8c-12,3 -16,10 -14,22 15,75 74,111 175,111 122,0 192,-49 207,-132 17,-94 -41,-128 -150,-138 -40,-4 -68,-8 -83,-13 -32,-11 -45,-34 -39,-71 10,-53 54,-79 132,-79 66,0 105,22 119,67 6,12 7,13 22,8l22 -9c12,-5 15,-12 12,-23z"/>
  <path class="fil0" d="M1345 2123c-20,0 -36,16 -36,36 0,20 16,36 36,36 20,0 36,-16 36,-36 0,-20 -16,-36 -36,-36z"/>
  <path class="fil0" d="M3663 739l-60 342c-25,139 -136,219 -305,219 -169,0 -249,-81 -224,-219l60 -342c25,-141 134,-219 302,-219 169,0 252,79 226,219zm274 -78l0 -14c-3,-231 -162,-370 -461,-370 -245,0 -427,87 -528,244 -4,-12 -9,-25 -16,-39 -70,-140 -212,-205 -406,-205 -303,0 -493,117 -571,350 8,-51 -6,-67 -58,-67l-263 0 2 -23c30,-233 113,-303 314,-303 55,0 76,-16 85,-72l18 -92c9,-53 -3,-72 -52,-74l-49 0c-341,8 -538,169 -584,540l-2 23 -139 0c-52,0 -73,16 -85,67 1,-92 -31,-169 -96,-232 -83,-79 -203,-118 -360,-118 -344,0 -566,166 -621,469l-51 275c-9,45 -13,88 -13,128 0,96 25,177 76,246 72,99 196,148 376,148 286,0 417,-101 445,-123 44,-33 39,-74 16,-99 -19,-22 -54,-59 -81,-86 -27,-27 -53,-19 -99,11 -47,31 -115,66 -240,66 -173,0 -249,-81 -224,-231l14 -81c106,18 201,28 284,28 311,0 494,-84 553,-268 -1,36 18,49 62,49l139 0 -87 502c-30,178 -120,272 -307,272 -55,0 -78,18 -88,74l-17 96c-9,55 7,74 62,74 349,0 554,-171 616,-515l88 -502 265 0c33,0 52,-7 65,-25l-47 270c-55,302 90,489 434,489 207,0 369,-68 470,-185 19,-21 33,-41 42,-58 52,153 204,243 443,243 344,0 554,-159 607,-448l60 -342c5,-32 8,-62 8,-91zm-1008 -55c-17,0 -32,-14 -32,-32 0,-17 14,-32 32,-32 17,0 32,14 32,32 0,17 -14,32 -32,32zm-62 125l-60 342c-8,45 -10,88 -7,127 -41,-25 -64,-39 -93,-54 -40,-21 -68,-11 -112,47 -49,64 -130,113 -249,113 -169,0 -238,-76 -212,-226l60 -339c30,-152 127,-229 293,-229 141,0 194,60 216,106 22,48 51,55 86,44 44,-13 61,-19 107,-36 -12,33 -22,68 -28,105zm-56 551c-17,0 -32,-14 -32,-32 0,-17 14,-32 32,-32 17,0 32,14 32,32 0,17 -14,32 -32,32zm-871 -561c-17,0 -32,-14 -32,-32 0,-17 14,-32 32,-32 17,0 32,14 32,32 0,17 -14,32 -32,32zm-807 0c-17,0 -32,-14 -32,-32 0,-17 14,-32 32,-32 17,0 32,14 32,32 0,17 -14,32 -32,32zm-259 -45c-21,97 -111,145 -270,145 -81,0 -175,-9 -284,-28l9 -48c30,-150 148,-242 316,-242 169,0 249,62 229,173z"/>
 </g>
</svg>
